<svg width="49" height="45" viewBox="0 0 49 45" fill="none" xmlns="http://www.w3.org/2000/svg">
<path d="M47.65 7.2652V7.26636V37.052C47.65 40.7829 44.6146 43.8183 40.8837 43.8183H7.26636C3.53539 43.8183 0.5 40.7829 0.5 37.052V7.26636C0.5 3.53538 3.53539 0.5 7.26636 0.5H40.8929C44.6241 0.5 47.6586 3.53535 47.65 7.2652ZM44.9661 37.052V36.552H44.9476V7.26636C44.9476 6.95273 44.9043 6.65671 44.8433 6.38232L44.6442 5.48631L43.9994 6.13953L27.7039 22.6474C27.7038 22.6475 27.7036 22.6477 27.7035 22.6478C26.754 23.6055 25.4964 24.134 24.1426 24.1428H24.1426H24.1426H24.1425H24.1425H24.1424H24.1424H24.1423H24.1423H24.1422H24.1422H24.1422H24.1421H24.1421H24.142H24.142H24.1419H24.1419H24.1418H24.1418H24.1417H24.1417H24.1417H24.1416H24.1416H24.1415H24.1415H24.1414H24.1414H24.1414H24.1413H24.1413H24.1412H24.1412H24.1411H24.1411H24.1411H24.141H24.141H24.1409H24.1409H24.1409H24.1408H24.1408H24.1407H24.1407H24.1406H24.1406H24.1406H24.1405H24.1405H24.1404H24.1404H24.1404H24.1403H24.1403H24.1403H24.1402H24.1402H24.1401H24.1401H24.1401H24.14H24.14H24.1399H24.1399H24.1399H24.1398H24.1398H24.1398H24.1397H24.1397H24.1396H24.1396H24.1396H24.1395H24.1395H24.1395H24.1394H24.1394H24.1394H24.1393H24.1393H24.1393H24.1392H24.1392H24.1391H24.1391H24.1391H24.139H24.139H24.139H24.1389H24.1389H24.1389H24.1388H24.1388H24.1388H24.1387H24.1387H24.1387H24.1386H24.1386H24.1386H24.1385H24.1385H24.1385H24.1384H24.1384H24.1384H24.1383H24.1383H24.1383H24.1382H24.1382H24.1382H24.1381H24.1381H24.1381H24.1381H24.138H24.138H24.138H24.1379H24.1379H24.1379H24.1378H24.1378H24.1378H24.1377H24.1377H24.1377H24.1376H24.1376H24.1376H24.1376H24.1375H24.1375H24.1375H24.1374H24.1374H24.1374H24.1373H24.1373H24.1373H24.1373H24.1372H24.1372H24.1372H24.1371H24.1371H24.1371H24.137H24.137H24.137H24.137H24.1369H24.1369H24.1369H24.1368H24.1368H24.1368H24.1368H24.1367H24.1367H24.1367H24.1366H24.1366H24.1366H24.1366H24.1365H24.1365H24.1365H24.1364H24.1364H24.1364H24.1364H24.1363H24.1363H24.1363H24.1362H24.1362H24.1362H24.1362H24.1361H24.1361H24.1361H24.1361H24.136H24.136H24.136H24.1359H24.1359H24.1359H24.1359H24.1358H24.1358H24.1358H24.1358H24.1357H24.1357H24.1357H24.1356H24.1356H24.1356H24.1356H24.1355H24.1355H24.1355H24.1355H24.1354H24.1354H24.1354H24.1353H24.1353H24.1353H24.1353H24.1352H24.1352H24.1352H24.1352H24.1351H24.1351H24.1351H24.135H24.135H24.135H24.135H24.1349H24.1349H24.1349H24.1349H24.1348H24.1348H24.1348H24.1347H24.1347H24.1347H24.1347H24.1346H24.1346H24.1346H24.1346H24.1345H24.1345H24.1345H24.1344H24.1344H24.1344H24.1344H24.1343H24.1343H24.1343H24.1343H24.1342H24.1342H24.1342H24.1341H24.1341H24.1341H24.1341H24.134H24.134H24.134H24.134H24.1339H24.1339H24.1339H24.1338H24.1338H24.1338H24.1338H24.1337H24.1337H24.1337H24.1336H24.1336H24.1336H24.1336H24.1335H24.1335H24.1335H24.1335H24.1334H24.1334H24.1334H24.1333H24.1333H24.1333H24.1333H24.1332H24.1332H24.1332H24.1331H24.1331H24.1331H24.133H24.133H24.133H24.133H24.1329H24.1329H24.1329H24.1328H24.1328H24.1328H24.1328H24.1327H24.1327H24.1327H24.1326H24.1326H24.1326H24.1325H24.1325H24.1325H24.1325H24.1324H24.1324H24.1324H24.1323H24.1323H24.1323H24.1322H24.1322H24.1322H24.1321H24.1321H24.1321H24.1321H24.132H24.132H24.132H24.1319H24.1319H24.1319H24.1318H24.1318H24.1318H24.1317H24.1317H24.1317H24.1316H24.1316H24.1316H24.1315H24.1315H24.1315H24.1314H24.1314H24.1314H24.1313H24.1313H24.1313H24.1312H24.1312H24.1312H24.1311H24.1311H24.1311H24.131H24.131H24.131H24.1309H24.1309H24.1309H24.1308H24.1308H24.1307H24.1307H24.1307H24.1306H24.1306H24.1306H24.1305H24.1305H24.1305H24.1304H24.1304H24.1304H24.1303H24.1303H24.1302H24.1302H24.1302H24.1301H24.1301H24.1301H24.13H24.13H24.1299H24.1299H24.1299H24.1298H24.1298H24.1297H24.1297H24.1297H24.1296H24.1296H24.1295H24.1295H24.1295H24.1294H24.1294H24.1293H24.1293H24.1293H24.1292H24.1292H24.1291H24.1291H24.1291H24.129H24.129H24.1289H24.1289H24.1289H24.1288H24.1288H24.1287H24.1287H24.1286H24.1286H24.1286H24.1285H24.1285H24.1284H24.1284H24.1283H24.1283H24.1282H24.1282H24.1282H24.1281H24.1281H24.128H24.128H24.1279H24.1279H24.1278H24.1278H24.1277H24.1277H24.1277H24.1276H24.1276H24.1275H24.1275H24.1274H24.1274H24.1273H24.1273H24.1272H24.1272H24.1271H24.1271H24.127H24.127H24.1269H24.1269H24.1268H24.1268H24.1267H24.1267H24.1266H24.1266H24.1265H24.1265H24.1264H24.1264H24.1263H24.1263H24.1262H24.1262H24.1261H24.1261H24.126H24.1259H24.1259H24.1258H24.1258C22.7807 24.1428 21.5231 23.6228 20.5738 22.6735L20.5734 22.6731L4.11098 6.24763L3.42414 5.56233L3.26463 6.51938C3.22595 6.75144 3.19319 6.99508 3.19319 7.26636V37.052C3.19319 39.2947 5.02359 41.1251 7.26636 41.1251H40.8929C43.1356 41.1251 44.9661 39.2947 44.9661 37.052Z" stroke="#DAD9D8"/>
</svg>
