<svg width="52" height="52" viewBox="0 0 52 52" fill="none" xmlns="http://www.w3.org/2000/svg">
<path d="M10.2614 0.908028L10.2626 0.907734C10.8422 0.757038 11.8081 0.591866 12.3677 0.540611C12.3684 0.540592 12.3695 0.540565 12.3709 0.54052C12.3799 0.540257 12.4036 0.539558 12.4494 0.538746C12.5064 0.537735 12.5858 0.536697 12.6867 0.535645C12.8885 0.533535 13.1732 0.531399 13.5322 0.529274C14.2498 0.525024 15.2617 0.520836 16.4936 0.517029C18.9572 0.509415 22.2994 0.503319 25.9251 0.501289M10.2614 0.908028L25.9251 0.501289M10.2614 0.908028C5.68856 2.08547 2.0886 5.6853 0.910971 10.2581M10.2614 0.908028L0.910971 10.2581M25.9251 0.501289C38.6797 0.497677 39.5944 0.492905 40.4821 0.645672M25.9251 0.501289L40.4821 0.645672M47.5638 47.7836L47.5622 47.7852C46.8282 48.5073 46.3262 48.912 45.5735 49.3995L47.5638 47.7836ZM47.5638 47.7836C48.8201 46.5587 49.7085 45.291 50.3884 43.7436L50.3891 43.7419M47.5638 47.7836L50.3891 43.7419M50.3891 43.7419C50.9111 42.5657 51.2133 41.4542 51.4357 39.9066M50.3891 43.7419L51.4357 39.9066M49.3485 6.34709L49.3486 6.34727C50.5838 8.21173 51.2883 10.2947 51.4649 12.5894C51.4793 12.7868 51.4901 14.5476 51.4955 17.1368C51.5009 19.7103 51.5013 23.0657 51.4975 26.409C51.4937 29.7524 51.4857 33.0833 51.4743 35.6081C51.4686 36.8706 51.4621 37.9309 51.4549 38.6902C51.4512 39.07 51.4474 39.3734 51.4435 39.5887C51.4415 39.6966 51.4395 39.7807 51.4376 39.8406C51.4358 39.8937 51.4344 39.9129 51.4347 39.9129C51.4348 39.9129 51.4351 39.9106 51.4357 39.9066M49.3485 6.34709L51.436 39.9043C51.4359 39.9051 51.4358 39.9059 51.4357 39.9066M49.3485 6.34709C47.3795 3.37197 44.332 1.35398 40.8465 0.712421M49.3485 6.34709L40.8465 0.712421M0.910971 10.2581C0.755403 10.8689 0.593888 11.8143 0.539125 12.4485C0.539064 12.4494 0.538962 12.4511 0.53883 12.4536L0.538001 12.4719C0.537375 12.4876 0.536705 12.5081 0.536011 12.5341C0.534623 12.586 0.533233 12.6557 0.531857 12.7438C0.52911 12.9197 0.526487 13.1643 0.524015 13.4768C0.519073 14.1015 0.514759 14.9939 0.511205 16.1424C0.504098 18.4392 0.500035 21.7579 0.500035 26.0033C0.500035 38.6727 0.495651 39.5894 0.648523 40.4791C0.668097 40.593 0.69025 40.7065 0.71532 40.8441M0.910971 10.2581L45.573 49.3999C43.8752 50.4965 42.1881 51.1077 39.9148 51.4321C39.9154 51.432 39.9157 51.432 39.9157 51.4319C39.9157 51.4316 39.8965 51.433 39.8434 51.4348C39.7835 51.4367 39.6994 51.4387 39.5915 51.4407C39.3762 51.4446 39.0728 51.4484 38.693 51.4521C37.9337 51.4593 36.8734 51.4658 35.6109 51.4715C33.0861 51.4829 29.7552 51.4909 26.4118 51.4947C23.0685 51.4985 19.7131 51.4981 17.1396 51.4927C14.5482 51.4873 12.7866 51.4765 12.5917 51.4621C10.1648 51.2777 7.97632 50.4992 6.0283 49.1301C3.24252 47.1698 1.32948 44.1884 0.71532 40.8441M0.71532 40.8441C0.715302 40.844 0.715285 40.844 0.715268 40.8439L0.22349 40.9342L0.7154 40.8446C0.715373 40.8444 0.715346 40.8443 0.71532 40.8441ZM40.8465 0.712421C40.7089 0.687366 40.5957 0.665226 40.4821 0.645672M40.8465 0.712421L40.4821 0.645672" stroke="#DAD9D8"/>
<path d="M39.7547 8.7079C38.6252 8.97198 37.7598 9.81298 37.4836 10.9303C37.3901 11.3081 37.3982 11.9663 37.4998 12.3644C37.9467 14.1196 39.8684 15.0703 41.5423 14.3674C41.9933 14.1805 42.5702 13.7173 42.8262 13.3395C43.5372 12.2913 43.529 10.9099 42.8018 9.89018C42.4402 9.38232 41.9445 9.01667 41.3311 8.80134C41.0263 8.69571 40.9004 8.67946 40.486 8.66727C40.1691 8.65508 39.9131 8.67133 39.7547 8.7079Z" stroke="#DAD9D8"/>
<path d="M25.1692 13.1039C21.9758 13.3558 19.0994 14.664 16.8851 16.8823C14.8375 18.9259 13.5821 21.4936 13.1758 24.4554C13.0783 25.1745 13.0783 26.8768 13.1798 27.6041C13.4683 29.7208 14.1184 31.4637 15.2559 33.1701C17.0273 35.8313 19.6722 37.7327 22.7193 38.533C24.6289 39.0328 26.709 39.0896 28.6389 38.6915C31.1253 38.1796 33.3517 36.977 35.1637 35.1609C37.2236 33.101 38.4749 30.5577 38.869 27.6244C38.9584 26.9459 38.9706 25.2273 38.8893 24.5773C38.5074 21.5545 37.248 18.9584 35.1434 16.8579C33.112 14.8306 30.5159 13.563 27.6069 13.1811C27.1437 13.1161 25.5999 13.0714 25.1692 13.1039ZM26.7943 17.0651C28.5332 17.2114 30.2599 17.9061 31.6494 19.0112C32.1085 19.3809 32.8642 20.161 33.2176 20.6363C34.1277 21.8552 34.6843 23.1878 34.9281 24.7195C35.0256 25.3451 35.0256 26.698 34.9281 27.3359C34.3105 31.2809 31.2837 34.3077 27.3388 34.9252C26.7171 35.0228 25.3114 35.0228 24.7101 34.9252C21.7361 34.4458 19.2619 32.6298 17.9577 29.9686C16.6089 27.2221 16.747 23.9963 18.3274 21.3798C19.0465 20.1935 20.1963 19.0437 21.3827 18.3246C23.0037 17.3454 24.9133 16.9026 26.7943 17.0651Z" stroke="#DAD9D8"/>
</svg>
