<svg xmlns="http://www.w3.org/2000/svg" version="1.1" xmlns:xlink="http://www.w3.org/1999/xlink" xmlns:svgjs="http://svgjs.com/svgjs" width="1000" height="1000"><rect width="1000" height="1000" rx="300" ry="300" fill="#555555"></rect><g transform="matrix(10.416666666666666,0,0,10.416666666666666,0,0)"><svg xmlns="http://www.w3.org/2000/svg" version="1.1" xmlns:xlink="http://www.w3.org/1999/xlink" xmlns:svgjs="http://svgjs.com/svgjs" width="96" height="96"><svg width="96" height="96" viewBox="0 0 96 96" fill="none" xmlns="http://www.w3.org/2000/svg">
<rect width="96" height="96" fill="#FFEAD5"></rect>
<path d="M62.7503 47.6887C62.7503 52.9412 61.5799 57.7369 59.2391 62.0759C56.8984 66.4149 53.6156 69.8975 49.3908 72.5237C45.166 75.0929 40.2561 76.3774 34.6611 76.3774C26.2685 76.3774 19.5602 73.5799 14.5361 67.9849C9.51205 62.3328 7 55.5674 7 47.6887C7 39.6958 9.56914 32.9304 14.7074 27.3925C19.9028 21.7975 26.6111 19 34.8323 19C43.1678 19 49.9046 21.7975 55.0429 27.3925C60.1812 32.9875 62.7503 39.7529 62.7503 47.6887ZM55.9849 47.7744C55.9849 41.0946 54.0723 35.5852 50.2472 31.2462C46.422 26.8501 41.2837 24.6521 34.8323 24.6521C28.2097 24.6521 23.0428 26.8787 19.3319 31.3319C15.6209 35.785 13.7654 41.2088 13.7654 47.6031C13.7654 53.8832 15.6209 59.3069 19.3319 63.8743C23.0428 68.4416 28.2668 70.7253 35.0036 70.7253C41.5692 70.7253 46.7075 68.5273 50.4184 64.1312C54.1294 59.678 55.9849 54.2257 55.9849 47.7744Z" fill="#292429"></path>
<path d="M88.5605 75.4295H79.5508V69.9201V69.1883V24.984V19.4746H88.5605V24.984V69.9201V75.4295Z" fill="#292429"></path>
<path d="M79.8814 52.3988H75.5139V75.521H70.7182L69.9474 67.8136C68.2918 70.2686 65.9225 72.3239 62.8395 73.9796C59.8136 75.5781 56.2454 76.3774 52.1347 76.3774C44.4844 76.3774 38.2899 73.637 33.5513 68.1562C28.8127 62.6754 26.4434 55.9385 26.4434 47.9456C26.4434 42.579 27.5852 37.7262 29.8689 33.3872C32.2096 28.9911 35.4068 25.5085 39.4603 22.9393C43.5709 20.3131 48.281 19 53.5906 19C58.0438 19 61.926 19.628 65.2374 20.884C68.6058 22.083 71.3462 23.6244 73.4586 25.5085V36.5558H69.6905L67.9778 28.6771C66.4363 27.6494 64.5522 26.736 62.3257 25.9367C60.1562 25.0803 57.3587 24.6521 53.9331 24.6521C47.7101 24.6521 42.686 26.7931 38.8609 31.0749C35.0357 35.3568 51.2784 40.8948 51.2784 47.6887C51.2784 54.5968 34.9501 60.1633 38.6039 64.3881C42.2578 68.6129 47.1392 70.7253 53.248 70.7253C58.3292 70.7253 62.2686 69.3551 65.0661 66.6147C67.8636 63.8172 69.2623 60.7342 69.2623 57.3658V52.3988H55.9885V46.8323H79.8814V52.3988Z" fill="#292429"></path>
</svg></svg></g></svg>