<svg width="300" height="300" viewBox="0 0 300 300" fill="none" xmlns="http://www.w3.org/2000/svg">
<path d="M171 150C171 162.267 168.267 173.467 162.8 183.6C157.333 193.733 149.667 201.867 139.8 208C129.933 214 118.467 217 105.4 217C85.8 217 70.1333 210.467 58.4 197.4C46.6667 184.2 40.8 168.4 40.8 150C40.8 131.333 46.8 115.533 58.8 102.6C70.9333 89.5333 86.6 83 105.8 83C125.267 83 141 89.5333 153 102.6C165 115.667 171 131.467 171 150ZM155.2 150.2C155.2 134.6 150.733 121.733 141.8 111.6C132.867 101.333 120.867 96.2 105.8 96.2C90.3333 96.2 78.2667 101.4 69.6 111.8C60.9333 122.2 56.6 134.867 56.6 149.8C56.6 164.467 60.9333 177.133 69.6 187.8C78.2667 198.467 90.4667 203.8 106.2 203.8C121.533 203.8 133.533 198.667 142.2 188.4C150.867 178 155.2 165.267 155.2 150.2Z" fill="#101010"/>
<path d="M238 215H217V202.2V200.5V97.8V85H238V97.8V202.2V215Z" fill="#101010"/>
<path d="M217.8 161H207.6V215H196.4L194.6 197C190.733 202.733 185.2 207.533 178 211.4C170.933 215.133 162.6 217 153 217C135.133 217 120.667 210.6 109.6 197.8C98.5333 185 93 169.267 93 150.6C93 138.067 95.6667 126.733 101 116.6C106.467 106.333 113.933 98.2 123.4 92.2C133 86.0667 144 83 156.4 83C166.8 83 175.867 84.4667 183.6 87.4C191.467 90.2 197.867 93.8 202.8 98.2V124H194L190 105.6C186.4 103.2 182 101.067 176.8 99.2C171.733 97.2 165.2 96.2 157.2 96.2C142.667 96.2 130.933 101.2 122 111.2C113.067 121.2 151 134.133 151 150C151 166.133 112.867 179.133 121.4 189C129.933 198.867 141.333 203.8 155.6 203.8C167.467 203.8 176.667 200.6 183.2 194.2C189.733 187.667 193 180.467 193 172.6V161H162V148H217.8V161Z" fill="#101010"/>
</svg>
